{"title":"BBC.The.Sky.at.Night.2011.Final.Frontier.Xvid.MP3.[KCS].avi","uid":6658961,"size":214359024,"categoryP":"video","categoryS":"tv_shows","magnet":"?xt=urn:btih:38172a6a4654eae761ae56b9b429dfb88c319728&amp;dn=BBC.The.Sky.at.Night.2011.Final.Frontier.Xvid.MP3.%5BKCS%5D.avi&amp;tr=udp%3A%2F%2Ftracker.openbittorrent.com%3A80&amp;tr=udp%3A%2F%2Fopen.demonii.com%3A1337&amp;tr=udp%3A%2F%2Ftracker.coppersurfer.tk%3A6969&amp;tr=udp%3A%2F%2Fexodus.desync.com%3A6969","seeders":0,"leechers":1,"uploader":null,"files":1,"time":1315435863,"description":"General\nComplete name                    : C:\\Dokumente und Einstellungen\\jaZz_KCS\\Desktop\\Neuer Ordner (2)\\BBC.The.Sky.at.Night.2011.Final.Frontier.Xvid.MP3.[KCS].avi\nFormat                           : AVI\nFormat/Info                      : Audio Video Interleave\nFile size                        : 204 MiB\nDuration                         : 19mn 57s\nOverall bit rate                 : 1 432 Kbps\n\nVideo\nID                               : 0\nFormat                           : MPEG-4 Visual\nFormat profile                   : Advanced Simple@L5\nFormat settings, BVOP            : Yes\nFormat settings, QPel            : No\nFormat settings, GMC             : No warppoints\nFormat settings, Matrix          : Default (H.263)\nMuxing mode                      : Packed bitstream\nCodec ID                         : XVID\nCodec ID/Hint                    : XviD\nDuration                         : 19mn 57s\nBit rate                         : 1 329 Kbps\nWidth                            : 1 024 pixels\nHeight                           : 600 pixels\nDisplay aspect ratio             : 16:9\nFrame rate                       : 25.000 fps\nColor space                      : YUV\nChroma subsampling               : 4:2:0\nBit depth                        : 8 bits\nScan type                        : Progressive\nCompression mode                 : Lossy\nBits/(Pixel*Frame)               : 0.087\nStream size                      : 190 MiB (93%)\nWriting library                  : XviD 64\n\nAudio\nID                               : 1\nFormat                           : MPEG Audio\nFormat version                   : Version 1\nFormat profile                   : Layer 3\nMode                             : Joint stereo\nMode extension                   : MS Stereo\nCodec ID                         : 55\nCodec ID/Hint                    : MP3\nDuration                         : 19mn 57s\nBit rate mode                    : Constant\nBit rate                         : 96.0 Kbps\nChannel(s)                       : 2 channels\nSampling rate                    : 32.0 KHz\nCompression mode                 : Lossy\nStream size                      : 13.7 MiB (7%)\nAlignment                        : Aligned on interleaves\nInterleave, duration             : 36 ms (0.90 video frame)\nInterleave, preload duration     : 432 ms\n\n","torrent":{"xt":"urn:btih:38172a6a4654eae761ae56b9b429dfb88c319728","amp;dn":"BBC.The.Sky.at.Night.2011.Final.Frontier.Xvid.MP3.%5BKCS%5D.avi","amp;tr":["udp%3A%2F%2Ftracker.openbittorrent.com%3A80","udp%3A%2F%2Fopen.demonii.com%3A1337","udp%3A%2F%2Ftracker.coppersurfer.tk%3A6969","udp%3A%2F%2Fexodus.desync.com%3A6969"],"infoHash":"38172a6a4654eae761ae56b9b429dfb88c319728","infoHashBuffer":{"type":"Buffer","data":[56,23,42,106,70,84,234,231,97,174,86,185,180,41,223,184,140,49,151,40]},"announce":[],"urlList":[]}}